<svg width="50" height="38" viewBox="0 0 50 38" fill="none" xmlns="http://www.w3.org/2000/svg">
<g clip-path="url(#clip0_142_511)">
<path d="M0 0.259277H50V37.7593H0V0.259277Z" fill="#012169"/>
<path d="M5.85938 0.259277L24.9219 14.3999L43.9062 0.259277H50V5.10303L31.25 19.0874L50 32.9937V37.7593H43.75L25 23.7749L6.32812 37.7593H0V33.0718L18.6719 19.1655L0 5.25928V0.259277H5.85938Z" fill="white"/>
<path d="M33.125 22.2124L50 34.6343V37.7593L28.8281 22.2124H33.125ZM18.75 23.7749L19.2188 26.5093L4.21875 37.7593H0L18.75 23.7749ZM50 0.259277V0.493652L30.5469 15.1812L30.7031 11.7437L46.0938 0.259277H50ZM0 0.259277L18.6719 14.0093H13.9844L0 3.54053V0.259277Z" fill="#C8102E"/>
<path d="M18.8281 0.259277V37.7593H31.3281V0.259277H18.8281ZM0 12.7593V25.2593H50V12.7593H0Z" fill="white"/>
<path d="M0 15.3374V22.8374H50V15.3374H0ZM21.3281 0.259277V37.7593H28.8281V0.259277H21.3281Z" fill="#C8102E"/>
</g>
<defs>
<clipPath id="clip0_142_511">
<rect y="0.259277" width="50" height="37.5" rx="8" fill="white"/>
</clipPath>
</defs>
</svg>
